<svg width="60" height="60" viewBox="0 0 60 60" fill="none" xmlns="http://www.w3.org/2000/svg">
<path d="M21 21C21 21 23.6693 20.1513 25.0447 20.1513C26.4201 20.1513 27.7129 21 29.0883 21C30.4637 21 31.7575 20.1513 33.133 20.1513C34.5084 20.1513 35.8011 21 37.1765 21C38.5519 21 39.8447 20.1282 41.2212 20.1513C41.8296 20.1617 43 20.5872 43 20.5872M35.3272 20.3941L40.0365 10.6679M41.9662 6.68348L42.7818 5" stroke="#CC0C34" stroke-linecap="round" stroke-linejoin="round"/>
<path d="M26.2859 48H37.7141M32 48V32.2806M32 32.2806L16 16H48L32 32.2806Z" stroke="#F2F2F2" stroke-linecap="round" stroke-linejoin="round"/>
<path d="M41 11C42.1046 11 43 10.1046 43 9C43 7.89543 42.1046 7 41 7C39.8954 7 39 7.89543 39 9C39 10.1046 39.8954 11 41 11Z" stroke="#CC0C34" stroke-linecap="round" stroke-linejoin="round"/>
</svg>
