<svg width="60" height="60" viewBox="0 0 60 60" fill="none" xmlns="http://www.w3.org/2000/svg">
<mask id="path-1-inside-1_20_50" fill="white">
<path d="M39.7977 23.4761C39.667 23.7801 39.4772 24.0551 39.2391 24.2851L24.2851 39.2391C24.0551 39.4772 23.7801 39.667 23.4761 39.7977C23.172 39.9283 22.8449 39.997 22.514 39.9999C22.1831 40.0028 21.8549 39.9397 21.5486 39.8144C21.2423 39.6891 20.964 39.504 20.73 39.27C20.496 39.036 20.3109 38.7577 20.1856 38.4514C20.0603 38.1451 19.9972 37.8169 20.0001 37.486C20.003 37.1551 20.0717 36.828 20.2023 36.5239C20.333 36.2199 20.5228 35.9449 20.7609 35.7149L35.7149 20.7609C35.9449 20.5228 36.2199 20.333 36.5239 20.2023C36.828 20.0717 37.1551 20.003 37.486 20.0001C37.8169 19.9972 38.1451 20.0603 38.4514 20.1856C38.7577 20.3109 39.036 20.496 39.27 20.73C39.504 20.964 39.6891 21.2423 39.8144 21.5486C39.9397 21.8549 40.0028 22.1831 39.9999 22.514C39.997 22.8449 39.9283 23.172 39.7977 23.4761Z"/>
<path d="M26.4127 26.4102C27.1138 25.7091 27.5077 24.7582 27.5077 23.7667C27.5077 22.7751 27.1138 21.8242 26.4127 21.1231C25.7116 20.422 24.7607 20.0281 23.7691 20.0281C22.7776 20.0281 21.8267 20.422 21.1256 21.1231C20.4245 21.8242 20.0306 22.7751 20.0306 23.7667C20.0306 24.7582 20.4245 25.7091 21.1256 26.4102C21.8267 27.1113 22.7776 27.5052 23.7691 27.5052C24.7607 27.5052 25.7116 27.1113 26.4127 26.4102Z"/>
<path d="M38.8744 38.8719C38.1733 39.573 37.2224 39.9669 36.2309 39.9669C35.2393 39.9669 34.2884 39.573 33.5873 38.8719C32.8862 38.1708 32.4923 37.2199 32.4923 36.2284C32.4923 35.2369 32.8862 34.2859 33.5873 33.5848C34.2884 32.8837 35.2393 32.4899 36.2309 32.4899C37.2224 32.4899 38.1733 32.8837 38.8744 33.5848C39.5755 34.2859 39.9694 35.2369 39.9694 36.2284C39.9694 37.2199 39.5755 38.1708 38.8744 38.8719Z"/>
</mask>
<path d="M39.7977 23.4761C39.667 23.7801 39.4772 24.0551 39.2391 24.2851L24.2851 39.2391C24.0551 39.4772 23.7801 39.667 23.4761 39.7977C23.172 39.9283 22.8449 39.997 22.514 39.9999C22.1831 40.0028 21.8549 39.9397 21.5486 39.8144C21.2423 39.6891 20.964 39.504 20.73 39.27C20.496 39.036 20.3109 38.7577 20.1856 38.4514C20.0603 38.1451 19.9972 37.8169 20.0001 37.486C20.003 37.1551 20.0717 36.828 20.2023 36.5239C20.333 36.2199 20.5228 35.9449 20.7609 35.7149L35.7149 20.7609C35.9449 20.5228 36.2199 20.333 36.5239 20.2023C36.828 20.0717 37.1551 20.003 37.486 20.0001C37.8169 19.9972 38.1451 20.0603 38.4514 20.1856C38.7577 20.3109 39.036 20.496 39.27 20.73C39.504 20.964 39.6891 21.2423 39.8144 21.5486C39.9397 21.8549 40.0028 22.1831 39.9999 22.514C39.997 22.8449 39.9283 23.172 39.7977 23.4761Z" stroke="#CC0C34" stroke-width="2" mask="url(#path-1-inside-1_20_50)"/>
<path d="M26.4127 26.4102C27.1138 25.7091 27.5077 24.7582 27.5077 23.7667C27.5077 22.7751 27.1138 21.8242 26.4127 21.1231C25.7116 20.422 24.7607 20.0281 23.7691 20.0281C22.7776 20.0281 21.8267 20.422 21.1256 21.1231C20.4245 21.8242 20.0306 22.7751 20.0306 23.7667C20.0306 24.7582 20.4245 25.7091 21.1256 26.4102C21.8267 27.1113 22.7776 27.5052 23.7691 27.5052C24.7607 27.5052 25.7116 27.1113 26.4127 26.4102Z" stroke="#CC0C34" stroke-width="2" mask="url(#path-1-inside-1_20_50)"/>
<path d="M38.8744 38.8719C38.1733 39.573 37.2224 39.9669 36.2309 39.9669C35.2393 39.9669 34.2884 39.573 33.5873 38.8719C32.8862 38.1708 32.4923 37.2199 32.4923 36.2284C32.4923 35.2369 32.8862 34.2859 33.5873 33.5848C34.2884 32.8837 35.2393 32.4899 36.2309 32.4899C37.2224 32.4899 38.1733 32.8837 38.8744 33.5848C39.5755 34.2859 39.9694 35.2369 39.9694 36.2284C39.9694 37.2199 39.5755 38.1708 38.8744 38.8719Z" stroke="#CC0C34" stroke-width="2" mask="url(#path-1-inside-1_20_50)"/>
<mask id="path-2-inside-2_20_50" fill="white">
<path d="M30.0005 5C32.3641 5 34.6503 5.84203 36.4492 7.37508L37.3862 8.17293C38.1825 8.85097 39.1722 9.26063 40.2147 9.3436L41.4401 9.44054C43.7964 9.62869 46.0086 10.6502 47.6798 12.3219C49.351 13.9936 50.3719 16.206 50.5595 18.5624L50.6564 19.7877C50.7401 20.8305 51.1506 21.8203 51.8296 22.6163L52.6249 23.5508C54.158 25.3497 55 27.6359 55 29.9995C55 32.363 54.158 34.6492 52.6249 36.4481L51.8296 37.3852C51.1506 38.1811 50.7401 39.1709 50.6564 40.2137L50.5619 41.439C50.3738 43.7953 49.3523 46.0075 47.6806 47.6787C46.0089 49.35 43.7964 50.3709 41.4401 50.5584L40.2147 50.6578C39.1722 50.7408 38.1825 51.1505 37.3862 51.8285L36.4517 52.6239C34.6526 54.1576 32.3659 55 30.0018 55C27.6377 55 25.3509 54.1576 23.5519 52.6239L22.6173 51.8285C21.8211 51.1505 20.8313 50.7408 19.7888 50.6578L18.5634 50.5609C16.2071 50.3727 13.995 49.3512 12.3238 47.6795C10.6525 46.0078 9.6316 43.7954 9.44408 41.439L9.34466 40.2137C9.26098 39.1709 8.85044 38.1811 8.1715 37.3852L7.37614 36.4506C5.84243 34.6515 5 32.3648 5 30.0007C5 27.6366 5.84243 25.3499 7.37614 23.5508L8.17399 22.6163C8.85203 21.82 9.26168 20.8302 9.34466 19.7877L9.4416 18.5624C9.62975 16.2061 10.6513 13.9939 12.323 12.3227C13.9947 10.6515 16.2071 9.63054 18.5634 9.44302L19.7888 9.3436C20.8316 9.25992 21.8214 8.84938 22.6173 8.17044L23.5519 7.37508C25.3508 5.84203 27.637 5 30.0005 5Z"/>
</mask>
<path d="M30.0005 5C32.3641 5 34.6503 5.84203 36.4492 7.37508L37.3862 8.17293C38.1825 8.85097 39.1722 9.26063 40.2147 9.3436L41.4401 9.44054C43.7964 9.62869 46.0086 10.6502 47.6798 12.3219C49.351 13.9936 50.3719 16.206 50.5595 18.5624L50.6564 19.7877C50.7401 20.8305 51.1506 21.8203 51.8296 22.6163L52.6249 23.5508C54.158 25.3497 55 27.6359 55 29.9995C55 32.363 54.158 34.6492 52.6249 36.4481L51.8296 37.3852C51.1506 38.1811 50.7401 39.1709 50.6564 40.2137L50.5619 41.439C50.3738 43.7953 49.3523 46.0075 47.6806 47.6787C46.0089 49.35 43.7964 50.3709 41.4401 50.5584L40.2147 50.6578C39.1722 50.7408 38.1825 51.1505 37.3862 51.8285L36.4517 52.6239C34.6526 54.1576 32.3659 55 30.0018 55C27.6377 55 25.3509 54.1576 23.5519 52.6239L22.6173 51.8285C21.8211 51.1505 20.8313 50.7408 19.7888 50.6578L18.5634 50.5609C16.2071 50.3727 13.995 49.3512 12.3238 47.6795C10.6525 46.0078 9.6316 43.7954 9.44408 41.439L9.34466 40.2137C9.26098 39.1709 8.85044 38.1811 8.1715 37.3852L7.37614 36.4506C5.84243 34.6515 5 32.3648 5 30.0007C5 27.6366 5.84243 25.3499 7.37614 23.5508L8.17399 22.6163C8.85203 21.82 9.26168 20.8302 9.34466 19.7877L9.4416 18.5624C9.62975 16.2061 10.6513 13.9939 12.323 12.3227C13.9947 10.6515 16.2071 9.63054 18.5634 9.44302L19.7888 9.3436C20.8316 9.25992 21.8214 8.84938 22.6173 8.17044L23.5519 7.37508C25.3508 5.84203 27.637 5 30.0005 5Z" stroke="#F2F2F2" stroke-width="2" mask="url(#path-2-inside-2_20_50)"/>
</svg>
