<svg width="60" height="60" viewBox="0 0 60 60" fill="none" xmlns="http://www.w3.org/2000/svg">
<path d="M21 47C22.3261 47 23.5979 46.4732 24.5355 45.5355C25.4732 44.5979 26 43.3261 26 42C26 40.6739 25.4732 39.4021 24.5355 38.4645C23.5979 37.5268 22.3261 37 21 37C19.6739 37 18.4021 37.5268 17.4645 38.4645C16.5268 39.4021 16 40.6739 16 42C16 43.3261 16.5268 44.5979 17.4645 45.5355C18.4021 46.4732 19.6739 47 21 47ZM46 47C47.3261 47 48.5979 46.4732 49.5355 45.5355C50.4732 44.5979 51 43.3261 51 42C51 40.6739 50.4732 39.4021 49.5355 38.4645C48.5979 37.5268 47.3261 37 46 37C44.6739 37 43.4021 37.5268 42.4645 38.4645C41.5268 39.4021 41 40.6739 41 42C41 43.3261 41.5268 44.5979 42.4645 45.5355C43.4021 46.4732 44.6739 47 46 47Z" stroke="#F2F2F2" stroke-miterlimit="1.5" stroke-linecap="round" stroke-linejoin="round"/>
<path d="M25.625 42H38V15.5273C38 15.1222 37.842 14.7337 37.5607 14.4473C37.2794 14.1609 36.8978 14 36.5 14H3M14.625 42H9.5C9.30302 42 9.10796 41.9605 8.92597 41.8837C8.74399 41.807 8.57863 41.6945 8.43934 41.5527C8.30005 41.4109 8.18956 41.2425 8.11418 41.0572C8.0388 40.8719 8 40.6733 8 40.4727V28" stroke="#F2F2F2" stroke-linecap="round"/>
<path d="M6 22H16" stroke="#CC0C34" stroke-linecap="round" stroke-linejoin="round"/>
<path d="M38 22H52.025C52.3149 22.0001 52.5987 22.0842 52.8418 22.2421C53.0849 22.4001 53.2771 22.6251 53.395 22.89L57.87 32.96C57.9553 33.1512 57.9995 33.3581 58 33.5675V40.5C58 40.697 57.9612 40.892 57.8858 41.074C57.8104 41.256 57.6999 41.4214 57.5607 41.5607C57.4214 41.6999 57.256 41.8104 57.074 41.8858C56.892 41.9612 56.697 42 56.5 42H51.75M38 42H40.5" stroke="#F2F2F2" stroke-linecap="round"/>
</svg>
