<svg width="40" height="40" viewBox="0 0 40 40" fill="none" xmlns="http://www.w3.org/2000/svg">
<path d="M21.667 12H18.333C14.841 12 12 14.5963 12 17.7877V20.5331C12 22.9097 13.5977 25.0456 16 25.9156V27.6953C16 27.816 16.0777 27.925 16.1983 27.9738C16.2417 27.9915 16.2877 28 16.3333 28C16.4143 28 16.4947 27.9729 16.557 27.9211L18.49 26.3208H21.667C25.159 26.3208 28 23.7245 28 20.5331V17.7877C28 14.5963 25.159 12 21.667 12ZM27.3333 20.5331C27.3333 23.3884 24.7917 25.7114 21.667 25.7114H18.3613C18.2787 25.7114 18.199 25.7394 18.1377 25.7903L16.6667 27.0082V25.7044C16.6667 25.5752 16.5777 25.46 16.4443 25.4174C14.185 24.687 12.6667 22.7242 12.6667 20.5331V17.7877C12.6667 14.9324 15.2087 12.6094 18.333 12.6094H21.667C24.7917 12.6094 27.3333 14.9324 27.3333 17.7877V20.5331Z" fill="white"/>
<path d="M23.871 21.9601L22.1309 20.799C21.9406 20.6719 21.7141 20.6289 21.4924 20.676C21.2705 20.724 21.0796 20.8587 20.9559 21.055L20.8741 21.1841C20.121 20.9285 19.2906 20.6018 18.7934 19.1235L18.9992 18.9397C19.3526 18.6241 19.3897 18.0721 19.0825 17.7086L17.7212 16.1C17.6187 15.9787 17.4398 15.9662 17.3217 16.0712L16.4669 16.8343C15.7172 17.5038 16.0675 18.4941 16.1827 18.8196C16.1878 18.8341 16.194 18.8481 16.2014 18.8618C16.2311 18.9164 16.9409 20.2176 18.0873 21.4171C19.2382 22.6214 21.316 23.7336 21.3797 23.7659C21.617 23.9241 21.884 24 22.1481 24C22.6119 24 23.0666 23.7665 23.3378 23.3383L23.9545 22.3629C24.0394 22.2276 24.0021 22.0476 23.871 21.9601ZM22.8628 23.0213C22.6077 23.425 22.0805 23.5396 21.6643 23.2639C21.6436 23.2528 19.5793 22.1485 18.4913 21.0099C17.4743 19.9457 16.7991 18.7635 16.707 18.5985C16.4828 17.9526 16.5224 17.5556 16.8384 17.2735L17.4797 16.7011L18.6552 18.0902C18.7597 18.2135 18.7475 18.3938 18.628 18.5005L18.2806 18.8106C18.196 18.8862 18.1626 19.0057 18.1957 19.1157C18.788 21.0928 19.9398 21.481 20.7806 21.7646L20.9032 21.8062C21.0258 21.8487 21.16 21.8001 21.2303 21.689L21.431 21.3714C21.4723 21.3057 21.5357 21.2612 21.6094 21.2452C21.6833 21.2289 21.7586 21.244 21.8225 21.2868L23.3254 22.2893L22.8628 23.0213Z" fill="white"/>
<path d="M20.4405 17.0135C20.2566 16.9607 20.0655 17.0674 20.0133 17.251C19.9611 17.4342 20.0675 17.6251 20.2511 17.6772C20.7661 17.8235 21.1764 18.2338 21.3216 18.7484C21.3644 18.9003 21.503 19 21.6541 19C21.6852 19 21.7166 18.9959 21.7481 18.9872C21.9316 18.9355 22.0388 18.745 21.9869 18.5614C21.7771 17.818 21.1843 17.2247 20.4405 17.0135Z" fill="white"/>
<path d="M22.6997 19C22.7267 19 22.754 18.9964 22.7813 18.9889C22.9409 18.944 23.0336 18.7784 22.9886 18.6194C22.6346 17.3669 21.636 16.368 20.382 16.0117C20.2227 15.9659 20.0568 16.059 20.0115 16.218C19.9662 16.377 20.0586 16.5426 20.2179 16.5878C21.273 16.8872 22.1133 17.7283 22.4112 18.782C22.4487 18.9138 22.5687 19 22.6997 19Z" fill="white"/>
<path d="M20.3381 15.0104C20.197 14.9699 20.0502 15.0517 20.0102 15.1928C19.9701 15.3334 20.0518 15.4798 20.1927 15.5198C21.7736 15.9685 23.033 17.2282 23.4793 18.807C23.5122 18.9235 23.6186 19 23.7345 19C23.7584 19 23.7825 18.9968 23.8066 18.9902C23.9475 18.9505 24.0298 18.8041 23.99 18.6635C23.4941 16.9089 22.0949 15.5094 20.3381 15.0104Z" fill="white"/>
</svg>
